HIERARCHY
ROOT Hips
{
	OFFSET 0.000000 0.000000 0.000000 
	CHANNELS 6 Xposition Yposition Zposition Yrotation Zrotation Xrotation 
	JOINT Lumbar
	{
		OFFSET 0.000000 0.000000 0.000000 
		CHANNELS 3 Zrotation Xrotation Yrotation
		JOINT Neck
		{
			OFFSET 0.000000 0.445665 0.000000 
			CHANNELS 3 Zrotation Xrotation Yrotation
			End Site
			{
				OFFSET 0.000000 0.227535 0.000000 
			}
		}
		JOINT RightShoulder
		{
			OFFSET 0.019635 0.377685 0.194865 
			CHANNELS 3 Zrotation Xrotation Yrotation
			JOINT RightElbow
			{
				OFFSET 0.000000 -0.243375 0.000000 
				CHANNELS 2 Zrotation Yrotation
				JOINT RightWrist
				{
					OFFSET 0.000000 -0.264825 0.000000 
					CHANNELS 2 Zrotation Xrotation
					End Site
					{
						OFFSET 0.006600 -0.176220 0.000990 
					}
				}
			}
		}
		JOINT LeftShoulder
		{
			OFFSET 0.019635 0.377685 -0.194865 
			CHANNELS 3 Zrotation Xrotation Yrotation
			JOINT LeftElbow
			{
				OFFSET 0.000000 -0.243375 0.000000 
				CHANNELS 2 Zrotation Yrotation
				JOINT LeftWrist
				{
					OFFSET 0.000000 -0.264825 0.000000 
					CHANNELS 2 Zrotation Xrotation
					End Site
					{
						OFFSET 0.006600 -0.176220 -0.000990 
					}
				}
			}
		}
	}
	JOINT RightHip
	{
		OFFSET 0.052140 -0.069960 0.075570 
		CHANNELS 3 Zrotation Xrotation Yrotation
		JOINT RightKnee
		{
			OFFSET 0.000000 -0.402270 0.000000 
			CHANNELS 1 Zrotation
			JOINT RightAnkle
			{
				OFFSET 0.000000 -0.404085 0.000000 
				CHANNELS 3 Zrotation Xrotation Yrotation
				End Site
				{
					OFFSET 0.204105 -0.089430 0.008415 
				}
			}
		}
	}
	JOINT LeftHip
	{
		OFFSET 0.052140 -0.069960 -0.075570 
		CHANNELS 3 Zrotation Xrotation Yrotation
		JOINT LeftKnee
		{
			OFFSET 0.000000 -0.402270 0.000000 
			CHANNELS 1 Zrotation
			JOINT LeftAnkle
			{
				OFFSET 0.000000 -0.404085 0.000000 
				CHANNELS 3 Zrotation Xrotation Yrotation
				End Site
				{
					OFFSET 0.204105 -0.089430 -0.008415 
				}
			}
		}
	}
}
MOTION
Frames: 11
Frame Time: 0.02
0.0001 -0.00012 0.00403 165.95636 -30.51413 -2.82994 42.07057 2.02966 -5.67306 -9.52182 -3.58137 -1.07948 -23.45039 -9.47497 -7.76195 32.07427 87.22795 6.97019 -0.54273 -24.69781 12.86391 -0.95036 43.53564 -93.3022 14.83158 0.38287 33.67438 -2.90864 -9.29563 -20.34128 -8.14857 -3.31113 -3.91504 35.51573 10.321 9.9404 -26.4366 -8.06638 3.17513 3.85608
-0.00086 -0.00032 0.00207 165.83694 -30.7927 -2.80853 42.34268 2.03901 -5.76155 -9.4466 -3.59496 -1.0809 -23.24145 -9.53667 -7.53942 32.4825 87.30294 7.00953 -0.54251 -24.4378 12.86876 -1.07653 43.52384 -93.30158 14.74362 0.37313 33.9345 -2.88796 -9.55029 -20.41179 -8.11406 -3.28419 -3.90015 35.74984 10.28881 9.46324 -26.48004 -8.11121 3.2164 3.8783
-0.00181 -0.00052 0.00012 165.71783 -31.07046 -2.78718 42.61395 2.04833 -5.85014 -9.37181 -3.60855 -1.08233 -23.03304 -9.59833 -7.31725 32.88978 87.37758 7.04866 -0.54228 -24.17874 12.87369 -1.20243 43.51172 -93.30105 14.65586 0.36339 34.19373 -2.86722 -9.80461 -20.48209 -8.07962 -3.25729 -3.88529 35.98313 10.25703 8.98793 -26.5233 -8.15592 3.25751 3.90044
-0.00276 -0.00072 -0.00183 165.59877 -31.34818 -2.76583 42.88522 2.05765 -5.93842 -9.29685 -3.62211 -1.08375 -22.82471 -9.65986 -7.09533 33.29681 87.4523 7.08786 -0.54206 -23.91953 12.87854 -1.32824 43.49988 -93.30044 14.56816 0.35367 34.45304 -2.84659 -10.05861 -20.55238 -8.04521 -3.23042 -3.87044 36.21651 10.22499 8.5123 -26.56659 -8.20062 3.29865 3.92259
-0.00372 -0.00092 -0.00378 165.4794 -31.62671 -2.74442 43.15733 2.067 -6.02645 -9.2214 -3.63564 -1.08517 -22.61595 -9.72137 -6.87323 33.70464 87.52746 7.12731 -0.54185 -23.65938 12.88328 -1.45422 43.48853 -93.29971 14.48027 0.34396 34.71327 -2.82605 -10.31265 -20.62287 -8.01074 -3.20355 -3.85558 36.45077 10.19244 8.03469 -26.6101 -8.24545 3.33995 3.94483
-0.00467 -0.00112 -0.00574 165.36083 -31.90284 -2.72321 43.42684 2.07628 -6.11621 -9.14798 -3.64937 -1.0866 -22.40833 -9.78337 -6.65096 34.11074 87.60102 7.16578 -0.54157 -23.40263 12.88861 -1.57992 43.47482 -93.29962 14.3928 0.33414 34.9704 -2.80487 -10.56744 -20.69278 -7.97635 -3.17659 -3.84071 36.68201 10.16229 7.56424 -26.65281 -8.28988 3.38065 3.96674
-0.00563 -0.00133 -0.00768 165.24081 -32.18346 -2.70163 43.70126 2.08567 -6.20243 -9.07054 -3.66271 -1.08802 -22.19852 -9.8443 -6.42914 34.51989 87.67758 7.20615 -0.54144 -23.13921 12.89273 -1.70614 43.46579 -93.29822 14.30459 0.32456 35.23344 -2.78508 -10.82079 -20.76377 -7.94185 -3.1498 -3.82587 36.91904 10.12731 7.07992 -26.69709 -8.33507 3.42251 3.98929
-0.00658 -0.00153 -0.00964 165.12209 -32.45999 -2.68038 43.97117 2.09496 -6.29184 -8.99684 -3.67636 -1.08944 -21.99092 -9.90622 -6.20712 34.9262 87.75163 7.24482 -0.54115 -22.88216 12.89799 -1.83172 43.45258 -93.29803 14.21707 0.31476 35.4911 -2.76384 -11.07486 -20.83376 -7.90746 -3.12292 -3.81103 37.15077 10.09683 6.60834 -26.73991 -8.37957 3.46331 4.01126
-0.00753 -0.00172 -0.01162 165.00506 -32.73143 -2.65954 44.23562 2.10416 -6.38552 -8.92761 -3.69059 -1.09088 -21.78516 -9.96938 -5.98386 35.32938 87.82162 7.28121 -0.54076 -22.63193 12.90459 -1.95725 43.43363 -93.29936 14.13029 0.30466 35.742 -2.74148 -11.33242 -20.90258 -7.87313 -3.09567 -3.79605 37.37596 10.07171 6.1524 -26.78098 -8.4232 3.50282 4.03252
-0.0085 -0.00194 -0.01347 164.87858 -33.03189 -2.63635 44.53165 2.11396 -6.45575 -8.83233 -3.70208 -1.09225 -21.56624 -10.02551 -5.76476 35.75161 87.91198 7.3301 -0.54123 -22.33958 12.9033 -2.08527 43.44583 -93.29207 14.03893 0.2962 36.03126 -2.72751 -11.57774 -20.97828 -7.83822 -3.06973 -3.78146 37.63856 10.01535 5.60668 -26.83221 -8.47176 3.54977 4.05783
-0.00943 -0.00212 -0.0156 164.7719 -33.27129 -2.61813 44.76091 2.12245 -6.57471 -8.7922 -3.71896 -1.09376 -21.37676 -10.0964 -5.53881 36.13294 87.9613 7.35302 -0.53969 -22.1379 12.91875 -2.20661 43.39355 -93.30287 13.95745 0.28432 36.2399 -2.69462 -11.84381 -21.03938 -7.80471 -3.04156 -3.76631 37.82239 10.02511 5.25025 -26.86195 -8.50997 3.581 4.0746
